<?xml version="1.0" encoding="utf-8"?>
<!-- Generator: Adobe Illustrator 24.0.0, SVG Export Plug-In . SVG Version: 6.00 Build 0)  -->
<svg version="1.1" id="Layer_1" xmlns="http://www.w3.org/2000/svg" xmlns:xlink="http://www.w3.org/1999/xlink" x="0px" y="0px"
	 viewBox="0 0 960 600" style="enable-background:new 0 0 960 600;" xml:space="preserve">
<style type="text/css">
	.st0{fill:#CEDB9C;}
	.st1{font-family:'Impact';}
	.st2{font-size:121.519px;}
	.st3{fill:#6B6ECF;}
	.st4{font-size:26.7342px;}
	.st5{fill:#9C9EDE;}
	.st6{font-size:12.1519px;}
	.st7{fill:#637939;}
	.st8{fill:#B5CF6B;}
	.st9{font-size:71.6962px;}
	.st10{fill:#8C6D31;}
	.st11{fill:#E7BA52;}
	.st12{fill:#843C39;}
	.st13{font-size:31.5949px;}
	.st14{fill:#D6616B;}
	.st15{font-size:46.1772px;}
	.st16{fill:#E7969C;}
	.st17{font-size:17.0127px;}
	.st18{fill:#7B4173;}
	.st19{fill:#CE6DBD;}
	.st20{fill:#5254A3;}
	.st21{font-size:41.3165px;}
	.st22{font-size:36.4557px;}
	.st23{fill:#A55194;}
	.st24{fill:#DE9ED6;}
	.st25{fill:#393B79;}
	.st26{font-size:21.8734px;}
	.st27{fill:#BD9E39;}
	.st28{fill:#E7CB94;}
	.st29{fill:#AD494A;}
	.st30{fill:#8CA252;}
</style>
<g transform="translate(480,300)scale(1.215189814567566,1.215189814567566)">
	<text transform="matrix(0.8229 0 0 0.8229 -61.6014 93.9999)" class="st0 st1 st2">data</text>
	<text transform="matrix(0.8229 0 0 0.8229 -82.456 -15.0004)" class="st3 st1 st4">model</text>
	<text transform="matrix(0.8229 0 0 0.8229 -16.7774 -125.0004)" class="st5 st1 st6">network</text>
	<text transform="matrix(0.8229 0 0 0.8229 -158.6654 -36)" class="st7 st1 st4">integration</text>
	<text transform="matrix(0.8229 0 0 0.8229 208.6166 -44.0002)" class="st8 st1 st9">omics</text>
	<text transform="matrix(0.8229 0 0 0.8229 197.4397 -102.0001)" class="st10 st1 st6">big</text>
	<text transform="matrix(0.8229 0 0 0.8229 -64.7307 -100.0003)" class="st11 st1 st6">genome</text>
	<text transform="matrix(0.8229 0 0 0.8229 -10.677 -12.0004)" class="st12 st1 st13">multiomics</text>
	<text transform="matrix(0.8229 0 0 0.8229 104.029 21.9995)" class="st14 st1 st15">Analysis</text>
	<text transform="matrix(0.8229 0 0 0.8229 -206.3962 34.0001)" class="st16 st1 st17">biology</text>
	<text transform="matrix(0.8229 0 0 0.8229 98.0532 105)" class="st18 st1 st6">datasets</text>
	<text transform="matrix(0.8229 0 0 0.8229 177.357 92.9994)" class="st19 st1 st6">integrated</text>
	<text transform="matrix(0.8229 0 0 0.8229 -206.7887 85.9998)" class="st20 st1 st21">metabolic</text>
	<text transform="matrix(0.8229 0 0 0.8229 165.1941 148.9995)" class="st7 st1 st6">transcriptomic</text>
	<text transform="matrix(0.8229 0 0 0.8229 226.1751 105)" class="st11 st1 st6">metagenomics</text>
	<text transform="matrix(0.8229 0 0 0.8229 -193.0788 130.9998)" class="st5 st1 st17">proteomics</text>
	<text transform="matrix(0.8229 0 0 0.8229 -237.2716 35.9995)" class="st0 st1 st6">scale</text>
	<text transform="matrix(0.8229 0 0 0.8229 -114.1307 52.9995)" class="st12 st1 st17">systems</text>
	<text transform="matrix(0.8229 0 0 0.8229 124.1117 52.9995)" class="st14 st1 st21">learn</text>
	<text transform="matrix(0.8229 0 0 0.8229 -205.3217 -93.0003)" class="st16 st1 st22">biological</text>
	<text transform="matrix(0.8229 0 0 0.8229 173.6073 -15.0004)" class="st18 st1 st22">networks</text>
	<text transform="matrix(0.8229 0 0 0.8229 52.0937 -58.0002)" class="st23 st1 st13">raw</text>
	<text transform="matrix(0.8229 0 0 0.8229 -143.3358 9)" class="st19 st1 st13">statistical</text>
	<text transform="matrix(0.8229 0 0 0.8229 -279.9596 -123.0001)" class="st24 st1 st13">methods</text>
	<text transform="matrix(0.8229 0 0 0.8229 -166.8259 -64.0001)" class="st25 st1 st13">understand</text>
	<text transform="matrix(0.8229 0 0 0.8229 -28.6767 12)" class="st20 st1 st4">knowledge</text>
	<text transform="matrix(0.8229 0 0 0.8229 14.9475 136.9997)" class="st3 st1 st4">Understanding</text>
	<text transform="matrix(0.8229 0 0 0.8229 172.0579 80.9996)" class="st5 st1 st4">concept</text>
	<text transform="matrix(0.8229 0 0 0.8229 -37.646 -83.0003)" class="st0 st1 st26">tools</text>
	<text transform="matrix(0.8229 0 0 0.8229 -238.2769 -29.0004)" class="st10 st1 st26">able</text>
	<text transform="matrix(0.8229 0 0 0.8229 -73.5393 23.9998)" class="st18 st1 st26">use</text>
	<text transform="matrix(0.8229 0 0 0.8229 33.8794 -35.0003)" class="st27 st1 st26">modeling</text>
	<text transform="matrix(0.8229 0 0 0.8229 -107.3324 119)" class="st11 st1 st26">new</text>
	<text transform="matrix(0.8229 0 0 0.8229 -181.2815 114.9995)" class="st28 st1 st26">integrate</text>
	<text transform="matrix(0.8229 0 0 0.8229 -208.0098 -77.0004)" class="st12 st1 st26">get</text>
	<text transform="matrix(0.8229 0 0 0.8229 115.0307 -30.0001)" class="st29 st1 st26">expect</text>
	<text transform="matrix(0.8229 0 0 0.8229 -15.9906 -37.0001)" class="st14 st1 st17">method</text>
	<text transform="matrix(0.8229 0 0 0.8229 191.8079 -147.0001)" class="st16 st1 st17">generate</text>
	<text transform="matrix(0.8229 0 0 0.8229 70.1617 -117.0003)" class="st18 st1 st17">basic</text>
	<text transform="matrix(0.8229 0 0 0.8229 -245.2922 109.9994)" class="st23 st1 st17">Examples</text>
	<text transform="matrix(0.8229 0 0 0.8229 -166.2713 -24.0002)" class="st19 st1 st17">know</text>
	<text transform="matrix(0.8229 0 0 0.8229 -67.9694 109.9994)" class="st24 st1 st17">meaningful</text>
	<text transform="matrix(0.8229 0 0 0.8229 -38.6441 -53)" class="st25 st1 st17">analyse</text>
	<text transform="matrix(0.8229 0 0 0.8229 -57.1598 -131.0003)" class="st3 st1 st17">using</text>
	<text transform="matrix(0.8229 0 0 0.8229 148.5815 -88.0001)" class="st20 st1 st17">metabolomics</text>
	<text transform="matrix(0.8229 0 0 0.8229 -54.8489 -111.0004)" class="st3 st1 st17">apply</text>
	<text transform="matrix(0.8229 0 0 0.8229 210.1475 136.9997)" class="st5 st1 st17">right</text>
	<text transform="matrix(0.8229 0 0 0.8229 209.061 54)" class="st7 st1 st17">analyses</text>
	<text transform="matrix(0.8229 0 0 0.8229 -69.7414 -149)" class="st30 st1 st17">questions</text>
	<text transform="matrix(0.8229 0 0 0.8229 -130.3117 39.0003)" class="st8 st1 st17">pathway</text>
	<text transform="matrix(0.8229 0 0 0.8229 117.5967 -10.9999)" class="st0 st1 st17">models</text>
	<text transform="matrix(0.8229 0 0 0.8229 -66.9713 125.9996)" class="st10 st1 st17">reconstruct</text>
	<text transform="matrix(0.8229 0 0 0.8229 -155.3544 23.9998)" class="st27 st1 st17">Ability</text>
	<text transform="matrix(0.8229 0 0 0.8229 67.8721 153)" class="st11 st1 st17">reconstruction</text>
	<text transform="matrix(0.8229 0 0 0.8229 240.8855 93.9999)" class="st28 st1 st6">choose</text>
	<text transform="matrix(0.8229 0 0 0.8229 82.2836 -136.0005)" class="st12 st1 st6">visualisation</text>
	<text transform="matrix(0.8229 0 0 0.8229 -153.705 99.0001)" class="st29 st1 st6">hands</text>
	<text transform="matrix(0.8229 0 0 0.8229 99.765 -75.0002)" class="st14 st1 st6">experience</text>
	<text transform="matrix(0.8229 0 0 0.8229 95.9148 -54.0001)" class="st16 st1 st6">pizza</text>
	<text transform="matrix(0.8229 0 0 0.8229 -180.6037 -10.0002)" class="st18 st1 st6">noodles</text>
	<text transform="matrix(0.8229 0 0 0.8229 -235.7752 57.9997)" class="st23 st1 st6">sandwish</text>
	<text transform="matrix(0.8229 0 0 0.8229 181.2249 -41.9999)" class="st19 st1 st6">infer</text>
	<text transform="matrix(0.8229 0 0 0.8229 243.0425 -89.9999)" class="st24 st1 st6">findings</text>
	<text transform="matrix(0.8229 0 0 0.8229 210.6152 117.9995)" class="st25 st1 st6">biologically</text>
	<text transform="matrix(0.8229 0 0 0.8229 111.4907 -123.0001)" class="st20 st1 st6">statistically</text>
	<text transform="matrix(0.8229 0 0 0.8229 231.7539 35.9995)" class="st3 st1 st6">significant</text>
	<text transform="matrix(0.8229 0 0 0.8229 202.6336 -134.9999)" class="st5 st1 st6">studies</text>
	<text transform="matrix(0.8229 0 0 0.8229 231.6751 -118)" class="st7 st1 st6">done</text>
	<text transform="matrix(0.8229 0 0 0.8229 113.7674 -64.0001)" class="st30 st1 st6">increase</text>
	<text transform="matrix(0.8229 0 0 0.8229 24.6762 147.9998)" class="st8 st1 st6">theories</text>
	<text transform="matrix(0.8229 0 0 0.8229 -105.1609 102.9997)" class="st0 st1 st6">correct</text>
	<text transform="matrix(0.8229 0 0 0.8229 -113.5058 137.9994)" class="st10 st1 st6">application</text>
	<text transform="matrix(0.8229 0 0 0.8229 -243.7513 144.0001)" class="st23 st1 st6">possible</text>
	<text transform="matrix(0.8229 0 0 0.8229 1.5759 -66.0003)" class="st27 st1 st6">limitations</text>
	<text transform="matrix(0.8229 0 0 0.8229 -230.5774 3.0001)" class="st11 st1 st6">approaches</text>
	<text transform="matrix(0.8229 0 0 0.8229 3.8197 105.9997)" class="st28 st1 st6">produce</text>
	<text transform="matrix(0.8229 0 0 0.8229 -131.0844 -18.0003)" class="st12 st1 st6">design</text>
	<text transform="matrix(0.8229 0 0 0.8229 -228.5948 46.9996)" class="st29 st1 st6">complementary</text>
	<text transform="matrix(0.8229 0 0 0.8229 -212.9373 15.9996)" class="st14 st1 st6">experiments</text>
	<text transform="matrix(0.8229 0 0 0.8229 -217.0471 -17.0002)" class="st16 st1 st6">utilities</text>
	<text transform="matrix(0.8229 0 0 0.8229 -38.7406 -36)" class="st18 st1 st6">file</text>
	<text transform="matrix(0.8229 0 0 0.8229 -248.6771 75.9994)" class="st23 st1 st6">process</text>
	<text transform="matrix(0.8229 0 0 0.8229 -241.9001 122.9997)" class="st19 st1 st6">report</text>
	<text transform="matrix(0.8229 0 0 0.8229 -113.6887 -122.0004)" class="st24 st1 st6">visualise</text>
	<text transform="matrix(0.8229 0 0 0.8229 140.9888 102)" class="st25 st1 st6">clue</text>
	<text transform="matrix(0.8229 0 0 0.8229 -190.5188 96.0001)" class="st20 st1 st6">pursue</text>
	<text transform="matrix(0.8229 0 0 0.8229 -155.2459 142.9996)" class="st3 st1 st6">projects</text>
	<text transform="matrix(0.8229 0 0 0.8229 43.6483 107.0002)" class="st5 st1 st6">organise</text>
	<text transform="matrix(0.8229 0 0 0.8229 15.4667 23)" class="st7 st1 st6">clean</text>
	<text transform="matrix(0.8229 0 0 0.8229 159.6796 136.9997)" class="st30 st1 st6">make</text>
	<text transform="matrix(0.8229 0 0 0.8229 -34.4339 -70)" class="st8 st1 st6">sense</text>
	<text transform="matrix(0.8229 0 0 0.8229 158.6855 62.9999)" class="st0 st1 st6">relate</text>
	<text transform="matrix(0.8229 0 0 0.8229 9.6942 -80.0003)" class="st10 st1 st6">disease</text>
	<text transform="matrix(0.8229 0 0 0.8229 -211.0572 156.9996)" class="st27 st1 st6">parameters</text>
	<text transform="matrix(0.8229 0 0 0.8229 215.9023 -103.0002)" class="st11 st1 st6">aims</text>
	<text transform="matrix(0.8229 0 0 0.8229 -2.083 -153.0004)" class="st28 st1 st6">work</text>
	<text transform="matrix(0.8229 0 0 0.8229 -260.8067 -64.0001)" class="st12 st1 st6">independently</text>
	<text transform="matrix(0.8229 0 0 0.8229 125.0359 86.9995)" class="st0 st1 st6">efficiently</text>
	<text transform="matrix(0.8229 0 0 0.8229 13.6368 -54.0001)" class="st29 st1 st6">whats</text>
	<text transform="matrix(0.8229 0 0 0.8229 129.6439 65.0001)" class="st14 st1 st6">pay</text>
	<text transform="matrix(0.8229 0 0 0.8229 -103.2367 -134.9999)" class="st16 st1 st6">special</text>
	<text transform="matrix(0.8229 0 0 0.8229 -166.8013 -120.0002)" class="st18 st1 st6">attention</text>
	<text transform="matrix(0.8229 0 0 0.8229 -112.0018 21.9995)" class="st23 st1 st6">propose</text>
	<text transform="matrix(0.8229 0 0 0.8229 165.5911 107.0002)" class="st30 st1 st6">appropriate</text>
	<text transform="matrix(0.8229 0 0 0.8229 207.5389 -125.0004)" class="st19 st1 st6">ways</text>
	<text transform="matrix(0.8229 0 0 0.8229 -168.0172 -146)" class="st24 st1 st6">public</text>
	<text transform="matrix(0.8229 0 0 0.8229 -257.5403 88.9997)" class="st25 st1 st6">databases</text>
	<text transform="matrix(0.8229 0 0 0.8229 92.9502 -103.0002)" class="st29 st1 st6">combination</text>
	<text transform="matrix(0.8229 0 0 0.8229 -6.6999 24.9995)" class="st20 st1 st6">HPA</text>
	<text transform="matrix(0.8229 0 0 0.8229 46.1074 -96.0002)" class="st3 st1 st6">PhD</text>
	<text transform="matrix(0.8229 0 0 0.8229 150.1437 -53)" class="st20 st1 st6">single</text>
	<text transform="matrix(0.8229 0 0 0.8229 34.7626 162.9995)" class="st5 st1 st6">familiar</text>
	<text transform="matrix(0.8229 0 0 0.8229 -233.1663 -47.0001)" class="st7 st1 st6">Genomescale</text>
	<text transform="matrix(0.8229 0 0 0.8229 93.3231 116.9998)" class="st5 st1 st6">perform</text>
	<text transform="matrix(0.8229 0 0 0.8229 48.102 -79.0002)" class="st30 st1 st6">different</text>
	<text transform="matrix(0.8229 0 0 0.8229 -57.3695 139.9996)" class="st8 st1 st6">types</text>
	<text transform="matrix(0.8229 0 0 0.8229 -264.0943 23)" class="st0 st1 st6">depending</text>
	<text transform="matrix(0.8229 0 0 0.8229 -17.0048 -137.9999)" class="st10 st1 st6">want</text>
	<text transform="matrix(0.8229 0 0 0.8229 -75.2631 -113.0002)" class="st27 st1 st6">ask</text>
	<text transform="matrix(0.8229 0 0 0.8229 -176.821 -133.0001)" class="st11 st1 st6">MSderived</text>
	<text transform="matrix(0.8229 0 0 0.8229 159.5606 -66.0003)" class="st28 st1 st6">RNAseq</text>
	<text transform="matrix(0.8229 0 0 0.8229 -266.6515 47.9993)" class="st12 st1 st6">derived</text>
	<text transform="matrix(0.8229 0 0 0.8229 -50.1589 151.9995)" class="st29 st1 st6">transcriptomics</text>
	<text transform="matrix(0.8229 0 0 0.8229 93.3432 -86.0002)" class="st14 st1 st6">research</text>
	<text transform="matrix(0.8229 0 0 0.8229 247.7686 148.9995)" class="st16 st1 st6">metabolomic</text>
	<text transform="matrix(0.8229 0 0 0.8229 157.8497 -77.0004)" class="st18 st1 st6">decide</text>
	<text transform="matrix(0.8229 0 0 0.8229 76.9692 4.9995)" class="st23 st1 st6">best</text>
	<text transform="matrix(0.8229 0 0 0.8229 -162.4328 0.9999)" class="st19 st1 st6">set</text>
	<text transform="matrix(0.8229 0 0 0.8229 252.2673 66.9996)" class="st24 st1 st6">principle</text>
	<text transform="matrix(0.8229 0 0 0.8229 -242.3554 -93.0003)" class="st25 st1 st6">behind</text>
	<text transform="matrix(0.8229 0 0 0.8229 -259.9155 -75.9999)" class="st20 st1 st6">technique</text>
	<text transform="matrix(0.8229 0 0 0.8229 -21.5582 136.9997)" class="st3 st1 st6">results</text>
	<text transform="matrix(0.8229 0 0 0.8229 42.5369 -141.0002)" class="st5 st1 st6">read</text>
	<text transform="matrix(0.8229 0 0 0.8229 -239.9196 -10.0002)" class="st0 st1 st6">Run</text>
	<text transform="matrix(0.8229 0 0 0.8229 -135.8319 -147.0001)" class="st7 st1 st6">select</text>
	<text transform="matrix(0.8229 0 0 0.8229 7.0985 -94.0004)" class="st30 st1 st6">suitable</text>
	<text transform="matrix(0.8229 0 0 0.8229 242.3144 -134.0002)" class="st8 st1 st6">like</text>
	<text transform="matrix(0.8229 0 0 0.8229 254.3994 79.9999)" class="st0 st1 st6">analyze</text>
	<text transform="matrix(0.8229 0 0 0.8229 -17.9394 -103.0002)" class="st10 st1 st6">RNA</text>
	<text transform="matrix(0.8229 0 0 0.8229 -14.6662 -115)" class="st27 st1 st6">sequences</text>
	<text transform="matrix(0.8229 0 0 0.8229 -34.671 162.9995)" class="st11 st1 st6">Introduction</text>
	<text transform="matrix(0.8229 0 0 0.8229 135.8568 165.9995)" class="st28 st1 st6">simulation</text>
	<text transform="matrix(0.8229 0 0 0.8229 180.2284 -53)" class="st12 st1 st6">GEMs</text>
	<text transform="matrix(0.8229 0 0 0.8229 36.4984 -114.0003)" class="st29 st1 st6">INs</text>
	<text transform="matrix(0.8229 0 0 0.8229 -81.758 151.9995)" class="st14 st1 st6">brief</text>
	<text transform="matrix(0.8229 0 0 0.8229 255.2568 -5)" class="st16 st1 st6">background</text>
	<text transform="matrix(0.8229 0 0 0.8229 -107.8322 158.9999)" class="st18 st1 st6">SBML</text>
	<text transform="matrix(0.8229 0 0 0.8229 -253.6407 -106.9999)" class="st23 st1 st6">Analyzing</text>
	<text transform="matrix(0.8229 0 0 0.8229 -249.1488 9)" class="st19 st1 st6">eg</text>
	<text transform="matrix(0.8229 0 0 0.8229 -104.6004 169.9999)" class="st24 st1 st6">genomescaled</text>
	<text transform="matrix(0.8229 0 0 0.8229 -244.221 -149)" class="st25 st1 st6">following</text>
	<text transform="matrix(0.8229 0 0 0.8229 -199.3407 -29.0004)" class="st20 st1 st6">course</text>
	<text transform="matrix(0.8229 0 0 0.8229 68.5842 -149)" class="st3 st1 st6">develop</text>
	<text transform="matrix(0.8229 0 0 0.8229 -139.0528 54)" class="st5 st1 st6">host</text>
	<text transform="matrix(0.8229 0 0 0.8229 241.3902 7.9995)" class="st7 st1 st6">microbiota</text>
	<text transform="matrix(0.8229 0 0 0.8229 69.5268 172.9999)" class="st30 st1 st6">experimental</text>
	<text transform="matrix(0.8229 0 0 0.8229 -194.9047 142.9996)" class="st8 st1 st6">predict</text>
	<text transform="matrix(0.8229 0 0 0.8229 -192.0916 -61.0001)" class="st0 st1 st6">1key</text>
	<text transform="matrix(0.8229 0 0 0.8229 -256.3815 154.9994)" class="st10 st1 st6">steps</text>
	<text transform="matrix(0.8229 0 0 0.8229 119.9674 -47.0001)" class="st27 st1 st6">2how</text>
	<text transform="matrix(0.8229 0 0 0.8229 147.957 74.9997)" class="st11 st1 st6">deal</text>
	<text transform="matrix(0.8229 0 0 0.8229 149.3192 -112.0001)" class="st28 st1 st6">3integration</text>
</g>
</svg>
